<?xml version="1.0" standalone="no"?>
<!DOCTYPE svg PUBLIC "-//W3C//DTD SVG 20010904//EN"
 "http://www.w3.org/TR/2001/REC-SVG-20010904/DTD/svg10.dtd">
<svg version="1.0" xmlns="http://www.w3.org/2000/svg"
 width="640.000000pt" height="1280.000000pt" viewBox="0 0 640.000000 1280.000000"
 preserveAspectRatio="xMidYMid meet">
<g transform="translate(0.000000,1280.000000) scale(0.100000,-0.100000)"
fill="#e91e63" stroke="none">
<path d="M3329 12788 c-5 -18 -55 -755 -52 -760 2 -5 29 -8 60 -8 l55 0 -6
143 c-28 598 -29 611 -46 622 -6 4 -10 5 -11 3z"/>
<path d="M3245 11928 c-43 -22 -101 -72 -116 -100 -7 -14 2 -12 43 9 79 41
177 44 254 9 32 -15 73 -38 90 -51 41 -31 44 -31 44 4 0 34 -68 102 -133 132
-56 25 -131 24 -182 -3z"/>
<path d="M3053 11662 c-37 -33 -43 -43 -43 -78 0 -22 3 -43 6 -47 4 -3 28 12
53 33 l47 40 202 0 c234 0 222 6 222 -108 0 -38 3 -72 6 -75 4 -4 27 21 50 55
59 83 61 128 6 181 l-38 37 -234 0 -235 -1 -42 -37z"/>
<path d="M3198 11503 c38 -48 140 -148 145 -142 2 2 33 41 70 85 37 45 67 85
67 88 0 3 -70 6 -156 6 l-156 0 30 -37z"/>
<path d="M3020 11368 c0 -69 2 -78 18 -78 28 0 55 35 49 62 -4 13 -20 39 -36
58 l-30 35 -1 -77z"/>
<path d="M3597 11383 c-13 -21 -29 -48 -35 -60 -15 -27 -16 -149 -2 -158 6 -3
10 -1 10 5 0 6 11 26 24 43 19 26 26 50 31 120 4 48 5 87 1 87 -3 0 -16 -17
-29 -37z"/>
<path d="M3316 11292 c-2 -4 0 -44 6 -87 11 -88 5 -616 -12 -925 -24 -449 -33
-606 -66 -1105 -49 -757 -126 -1785 -212 -2833 -10 -117 -16 -215 -13 -218 2
-2 109 -4 236 -4 l232 0 -14 53 c-44 169 -76 632 -104 1492 -6 176 -13 1066
-16 1978 -5 1353 -8 1657 -19 1657 -7 0 -15 -4 -18 -8z"/>
<path d="M3090 11252 c-22 -18 -24 -35 -71 -643 -27 -343 -62 -815 -79 -1049
-17 -234 -35 -468 -41 -520 -25 -248 -278 -2295 -329 -2665 -31 -220 -34 -252
-23 -258 6 -4 47 -9 91 -13 l82 -7 0 47 c0 54 19 69 51 40 20 -18 22 -16 111
73 l92 92 -37 55 c-21 31 -42 56 -48 56 -6 0 -37 -21 -70 -46 -32 -25 -64 -42
-69 -39 -6 3 -10 19 -10 35 0 20 10 36 38 59 l37 30 -27 51 c-16 27 -28 65
-28 84 0 62 13 126 25 126 7 0 29 -25 50 -56 l37 -57 75 75 75 75 -51 77 c-28
42 -55 76 -59 76 -5 0 -32 -20 -61 -45 -29 -25 -57 -43 -62 -39 -22 13 -9 71
26 111 19 23 35 44 35 48 0 3 -12 22 -26 41 -26 33 -26 37 -20 132 11 156 12
157 67 193 27 17 49 33 49 36 0 2 -20 29 -44 59 -43 52 -45 57 -40 107 16 169
11 155 65 194 27 19 49 38 49 41 0 4 -20 25 -45 47 l-45 40 10 100 c10 109 9
107 100 177 l35 27 -53 54 c-50 51 -52 54 -52 109 0 79 9 97 79 148 33 25 60
50 61 56 0 6 -25 33 -55 59 l-55 47 0 58 c0 76 11 103 52 129 77 49 76 43 24
112 -42 57 -46 68 -46 120 0 56 0 57 56 104 l55 48 -45 46 c-39 40 -46 53 -46
86 0 65 10 83 61 116 27 17 49 33 49 35 0 2 -20 26 -45 54 -25 28 -45 61 -45
73 0 52 21 92 65 126 l45 33 -31 39 c-17 21 -35 41 -40 44 -17 11 -11 104 9
120 9 7 27 22 40 32 l22 18 -34 50 c-31 45 -34 55 -29 98 5 40 12 52 45 78
l38 31 -36 40 c-32 35 -35 44 -29 77 3 21 18 47 35 63 17 15 30 32 30 37 0 6
-12 27 -26 48 -21 30 -25 46 -21 78 5 37 12 46 53 71 17 10 17 13 -9 43 -37
45 -36 86 4 127 l32 33 -27 31 c-35 42 -34 83 1 116 27 25 27 26 10 56 -9 16
-17 47 -17 69 0 44 -7 47 -40 21z"/>
<path d="M3556 10345 c2 -148 9 -409 14 -580 5 -170 14 -474 20 -675 10 -343
15 -532 40 -1337 36 -1157 48 -1510 56 -1580 l5 -53 123 0 c67 0 125 2 127 5
3 2 -3 93 -12 202 -125 1425 -252 2884 -319 3663 -28 322 -52 594 -55 605 -2
11 -2 -101 1 -250z"/>
<path d="M3027 8814 c-39 -30 -47 -42 -47 -69 0 -26 7 -37 38 -59 21 -14 41
-26 44 -26 3 0 4 27 1 59 -3 33 -1 73 6 92 6 18 10 34 8 36 -2 1 -25 -13 -50
-33z"/>
<path d="M3015 8464 c-61 -46 -66 -53 -59 -79 7 -24 94 -115 110 -115 6 0 17
6 23 14 9 10 4 18 -24 37 -41 28 -42 40 -15 110 12 28 19 56 18 61 -2 5 -26
-8 -53 -28z"/>
<path d="M2927 8094 c-4 -4 -7 -33 -7 -64 0 -53 2 -58 43 -98 l43 -42 33 34
c38 39 34 56 -14 56 -39 0 -43 5 -59 68 -12 44 -25 60 -39 46z"/>
<path d="M2887 7693 c-2 -5 -2 -31 1 -59 3 -41 11 -59 41 -94 l38 -44 43 35
43 34 -39 10 c-31 8 -44 20 -73 67 -35 56 -46 66 -54 51z"/>
<path d="M2870 7221 c0 -54 5 -78 24 -111 l23 -41 61 68 c33 37 58 71 56 75
-3 5 -25 8 -49 8 -35 0 -49 6 -70 27 -14 15 -25 31 -25 35 0 5 -4 8 -10 8 -6
0 -10 -30 -10 -69z"/>
<path d="M2358 5977 l-88 -20 0 -36 c0 -63 9 -65 85 -20 l70 41 820 -12 820
-12 78 -26 c67 -22 80 -24 88 -11 20 32 9 47 -48 70 -55 21 -78 23 -393 30
-184 4 -562 9 -840 12 -483 5 -509 4 -592 -16z"/>
<path d="M2380 5788 c0 -40 0 -40 871 -51 776 -10 841 -9 856 6 9 9 13 20 9
24 -9 9 -353 17 -1183 28 -492 7 -553 6 -553 -7z"/>
<path d="M2433 5682 c-7 -4 -33 -73 -59 -152 -56 -174 -251 -726 -495 -1402
-98 -273 -179 -500 -179 -506 0 -10 117 -22 225 -22 l71 0 28 120 c26 112 30
123 82 189 l54 70 -16 68 c-30 131 -15 185 35 124 l28 -34 17 48 c22 66 21 70
-19 95 -51 32 -46 50 14 50 54 0 54 0 67 73 3 20 3 37 0 37 -4 0 -24 -9 -46
-20 -49 -25 -50 -25 -50 4 0 48 17 71 69 95 28 14 51 27 51 30 0 3 -16 19 -35
34 -37 29 -43 54 -25 101 12 33 22 33 64 -4 38 -34 41 -32 51 24 8 41 -2 56
-41 56 -32 0 -56 23 -48 44 6 16 15 18 71 13 35 -2 65 -1 68 3 2 4 7 26 11 50
l7 44 -56 -32 c-85 -48 -97 -44 -77 28 8 28 24 44 76 78 l66 44 -47 41 -47 42
10 43 c6 24 13 46 16 50 4 3 29 -16 56 -43 27 -27 51 -47 53 -44 11 12 25 69
18 73 -4 3 -31 8 -60 12 -32 4 -55 13 -58 22 -7 16 23 155 39 186 8 16 18 18
58 13 26 -3 50 -3 54 0 3 3 -2 19 -10 35 -13 26 -18 28 -49 22 -40 -7 -41 -4
-24 78 15 70 23 77 54 48 l25 -23 28 24 c15 13 29 25 32 27 8 6 -25 22 -45 22
-11 0 -33 7 -49 15 -32 17 -45 18 -63 7z"/>
<path d="M2750 5641 c0 -5 9 -19 19 -32 l19 -24 26 24 c36 34 33 41 -19 41
-25 0 -45 -4 -45 -9z"/>
<path d="M3030 5638 c0 -8 11 -25 24 -37 28 -27 52 -23 86 14 23 24 23 25 3
25 -11 0 -41 3 -67 6 -37 5 -46 4 -46 -8z"/>
<path d="M3953 5643 c-18 -2 -33 -5 -33 -7 0 -1 14 -39 30 -84 28 -78 29 -84
14 -107 -15 -24 -15 -25 4 -25 11 0 24 -6 30 -13 9 -11 424 -1249 573 -1712
l36 -110 53 2 c30 2 57 6 62 11 4 4 -42 165 -103 357 -170 539 -464 1478 -497
1590 l-29 100 -54 1 c-30 1 -69 -1 -86 -3z"/>
<path d="M3171 5570 l-34 -29 27 -36 c15 -19 31 -35 35 -35 9 0 21 58 21 103
0 34 -6 33 -49 -3z"/>
<path d="M2670 5540 l0 -50 25 16 c29 19 31 31 9 62 -24 34 -34 26 -34 -28z"/>
<path d="M2957 5573 c-13 -43 -19 -93 -10 -93 5 0 24 12 42 28 l32 27 -29 28
c-27 26 -31 27 -35 10z"/>
<path d="M3277 5553 c-9 -53 -9 -93 1 -93 4 0 22 15 40 33 l32 33 -34 33 -33
32 -6 -38z"/>
<path d="M3500 5555 l-23 -25 23 -25 c33 -35 40 -32 40 19 0 55 -10 63 -40 31z"/>
<path d="M2581 5553 c-24 -19 -24 -20 -5 -48 l18 -28 9 33 c4 17 7 39 5 47 -3
13 -7 12 -27 -4z"/>
<path d="M2845 5554 c-15 -11 -17 -18 -9 -31 20 -31 34 -26 34 11 0 20 -1 36
-2 36 -2 0 -12 -7 -23 -16z"/>
<path d="M3032 5468 l-43 -33 72 -8 c39 -4 74 -5 77 -2 3 3 -10 21 -29 41
l-35 34 -42 -32z"/>
<path d="M2725 5460 l-29 -30 52 0 53 0 -16 30 c-9 17 -19 30 -23 30 -5 0 -21
-13 -37 -30z"/>
<path d="M3371 5454 c-17 -14 -31 -30 -31 -35 0 -5 34 -9 75 -9 41 0 75 4 75
9 0 11 -65 61 -79 61 -5 0 -23 -12 -40 -26z"/>
<path d="M3696 5445 c-9 -13 -16 -27 -16 -30 0 -9 88 -6 94 3 4 8 -45 52 -57
52 -3 0 -12 -11 -21 -25z"/>
<path d="M2767 5213 c-2 -5 -7 -24 -11 -44 -7 -42 -18 -52 -103 -103 -35 -21
-63 -40 -63 -43 0 -3 23 -30 51 -60 42 -44 50 -59 46 -81 -20 -109 -40 -200
-45 -208 -4 -6 -50 -39 -102 -74 l-94 -63 69 -63 69 -63 -27 -118 c-31 -134
-27 -130 -152 -198 -46 -25 -86 -49 -89 -54 -3 -4 24 -36 60 -72 36 -35 70
-71 75 -80 6 -12 -3 -60 -26 -150 -19 -73 -33 -134 -31 -136 1 -2 23 -6 47 -9
l45 -6 98 443 c205 925 256 1164 251 1177 -5 13 -61 17 -68 5z"/>
<path d="M2585 5169 c-4 -22 -5 -42 -3 -44 6 -7 108 64 108 75 0 6 -22 10 -49
10 l-49 0 -7 -41z"/>
<path d="M3620 5187 c0 -6 373 -1516 391 -1580 l10 -38 117 7 c64 4 118 8 119
9 2 1 -13 48 -32 105 -40 119 -41 127 -18 152 18 20 18 20 -50 95 -33 36 -143
321 -129 335 5 5 21 4 37 -2 15 -6 29 -9 31 -7 7 7 -28 147 -37 147 -4 0 -16
-13 -26 -30 -28 -48 -43 -40 -67 37 -5 16 1 30 24 56 16 19 30 39 30 43 0 5
-25 25 -56 44 -46 28 -61 45 -80 88 -13 29 -24 59 -24 66 0 7 -7 27 -16 44 -8
18 -13 36 -9 42 3 5 31 10 62 10 l56 0 -7 47 c-3 26 -10 51 -14 55 -5 5 -28
-7 -53 -27 -53 -42 -66 -43 -79 -9 -14 36 -15 33 43 87 60 56 64 50 -59 117
-52 28 -75 47 -84 69 -7 17 -18 31 -24 31 -6 0 -21 3 -33 6 -13 4 -23 4 -23 1z"/>
<path d="M3770 5186 c0 -5 101 -66 111 -66 5 0 9 16 9 35 l0 35 -60 0 c-33 0
-60 -2 -60 -4z"/>
<path d="M2927 5039 c-3 -19 -9 -70 -13 -115 l-6 -81 203 -6 c112 -4 257 -7
322 -7 117 0 117 0 117 24 0 13 2 39 5 57 l5 34 -13 -35 -14 -35 -275 -3
c-213 -2 -278 1 -286 10 -11 15 -30 128 -24 146 2 8 29 12 77 12 41 0 77 5 80
10 4 6 -6 10 -23 10 -16 0 -56 3 -89 6 l-60 7 -6 -34z"/>
<path d="M2530 4915 c-6 -17 -14 -42 -17 -57 -5 -25 -2 -27 39 -33 24 -4 57
-5 74 -3 l29 3 -57 60 -57 60 -11 -30z"/>
<path d="M3172 4739 c-140 -9 -256 -20 -259 -23 -18 -18 43 -23 338 -29 183
-4 336 -10 339 -14 4 -4 40 -231 80 -503 39 -272 74 -505 77 -517 5 -21 11
-23 69 -23 42 0 64 4 64 12 0 6 -66 260 -147 565 l-147 553 -80 -1 c-45 -1
-195 -10 -334 -20z"/>
<path d="M3930 4690 c74 -53 80 -53 59 9 -10 29 -14 31 -62 31 l-52 0 55 -40z"/>
<path d="M2742 4175 c-62 -286 -112 -526 -112 -532 0 -8 14 -13 34 -13 32 0
35 3 50 48 43 133 87 409 131 829 9 84 15 161 13 170 -2 10 -54 -216 -116
-502z"/>
<path d="M2354 4315 c-20 -74 -35 -138 -31 -141 8 -8 138 62 158 86 9 11 20
36 23 56 7 33 4 39 -35 72 -82 71 -72 78 -115 -73z"/>
<path d="M2193 3793 c-28 -76 -49 -140 -48 -142 4 -4 181 91 207 111 15 12 12
20 -38 88 -30 41 -58 76 -62 78 -4 1 -30 -60 -59 -135z"/>
<path d="M4316 3858 c13 -39 26 -73 28 -75 7 -7 87 38 84 47 -3 8 -124 100
-132 100 -3 0 6 -32 20 -72z"/>
<path d="M1300 3547 c0 -8 15 -36 33 -62 l32 -47 1850 1 c1018 1 1860 4 1871
7 13 3 28 21 37 45 l15 39 -79 0 c-254 0 -2910 20 -3296 25 -397 5 -463 4
-463 -8z"/>
<path d="M1270 3191 c0 -6 7 -40 16 -77 9 -39 14 -103 13 -153 -2 -85 -2 -85
25 -92 58 -16 338 -30 786 -39 535 -11 1991 -13 2598 -3 l412 6 0 117 c0 77 5
134 16 169 8 29 13 55 11 57 -4 5 -2796 23 -3524 24 -213 0 -353 -4 -353 -9z"/>
<path d="M1085 2543 c-82 -120 -306 -447 -498 -726 -192 -280 -346 -514 -344
-521 8 -21 95 -88 106 -82 5 3 101 149 212 324 315 492 467 722 513 773 44 50
135 208 188 326 l32 73 -24 25 c-13 14 -27 25 -30 25 -4 0 -74 -98 -155 -217z"/>
<path d="M1873 2575 l-121 -115 -192 -35 c-106 -18 -194 -36 -198 -39 -3 -3
37 -6 89 -6 52 0 150 -3 219 -6 l125 -7 96 149 c103 159 112 174 107 174 -2 0
-58 -52 -125 -115z"/>
<path d="M5187 2674 c-6 -6 739 -1491 774 -1544 l15 -23 72 38 c40 22 83 48
97 60 l26 20 -76 118 c-119 186 -834 1268 -861 1305 -25 32 -35 38 -47 26z"/>
<path d="M3075 2484 c-384 -55 -658 -163 -996 -390 -373 -251 -811 -692 -1078
-1085 l-63 -94 92 100 c267 288 555 555 783 726 679 508 1329 662 1939 459
200 -66 452 -208 643 -361 287 -229 600 -608 825 -998 30 -51 59 -95 65 -97 6
-3 64 -3 128 -2 l117 3 -85 135 c-269 421 -559 774 -853 1036 -329 294 -690
482 -1052 550 -82 15 -400 27 -465 18z"/>
<path d="M2092 2458 c-19 -19 -14 -48 19 -100 17 -26 33 -48 35 -48 2 0 19 7
38 17 l35 16 -24 47 c-39 76 -73 98 -103 68z"/>
<path d="M2282 2458 c-14 -14 -16 -66 -3 -87 7 -11 15 -11 47 -1 55 17 57 22
31 61 -24 36 -54 48 -75 27z"/>
<path d="M2452 2448 c-27 -27 -14 -41 30 -34 53 9 62 15 47 32 -14 17 -61 18
-77 2z"/>
<path d="M3918 2443 c-25 -6 -22 -20 5 -27 32 -8 47 -7 47 4 0 13 -32 27 -52
23z"/>
<path d="M4054 2425 c-8 -13 -14 -32 -12 -42 2 -12 91 -65 262 -156 142 -76
260 -137 262 -135 3 4 -83 75 -273 225 -80 64 -187 133 -205 133 -9 0 -25 -11
-34 -25z"/>
<path d="M1931 2401 c-23 -15 -15 -56 24 -109 20 -29 41 -52 45 -52 16 0 70
35 70 46 0 6 -17 35 -38 65 -38 55 -70 70 -101 50z"/>
<path d="M1352 2225 c-30 -37 -52 -69 -49 -72 5 -5 245 94 260 108 9 7 -11 11
-113 25 l-45 6 -53 -67z"/>
<path d="M1176 2244 c-38 -8 -70 -15 -72 -17 -5 -4 70 -117 78 -117 7 0 88
131 88 143 0 9 -9 8 -94 -9z"/>
<path d="M1827 2243 c-13 -12 -7 -50 9 -64 13 -11 21 -10 50 6 35 19 38 23 28
49 -6 16 -73 23 -87 9z"/>
<path d="M1520 2147 l-125 -61 90 -8 c50 -4 95 -6 101 -4 9 4 74 116 74 130 0
11 -13 6 -140 -57z"/>
<path d="M4775 2090 c14 -28 31 -53 38 -55 7 -3 44 -1 82 3 l70 8 -62 12 c-44
9 -74 23 -103 47 -23 19 -44 35 -46 35 -2 0 7 -23 21 -50z"/>
<path d="M2990 2065 c-210 -31 -395 -88 -574 -179 -490 -248 -833 -717 -995
-1361 -56 -223 -52 -269 9 -100 159 441 405 825 645 1008 211 160 505 306 765
380 68 20 98 22 310 21 255 -1 389 -13 484 -45 130 -44 465 -218 639 -333 77
-50 82 -56 260 -306 99 -140 194 -280 209 -311 34 -69 68 -162 119 -334 l38
-130 1 147 c0 81 4 158 10 172 6 18 29 34 75 55 36 16 65 35 65 42 0 34 -184
304 -337 496 -187 234 -462 498 -617 591 -140 85 -360 157 -567 187 -126 18
-419 18 -539 0z"/>
<path d="M1315 1954 c51 -79 91 -133 97 -131 4 1 28 31 53 67 32 46 42 66 33
71 -7 4 -56 10 -107 14 l-95 7 19 -28z"/>
<path d="M1141 1854 c-28 -37 -51 -71 -51 -75 0 -5 48 -9 106 -9 81 0 104 3
98 13 -10 15 -84 119 -94 130 -5 5 -31 -21 -59 -59z"/>
<path d="M930 1847 c-90 -60 -92 -62 -64 -68 81 -18 90 -14 130 57 20 36 34
67 32 69 -2 2 -46 -24 -98 -58z"/>
<path d="M4934 1845 c16 -28 32 -54 36 -58 4 -5 26 15 50 43 23 28 41 53 39
55 -3 2 -22 -4 -44 -14 -39 -18 -41 -18 -75 2 l-34 21 28 -49z"/>
<path d="M750 1589 c10 -39 20 -73 22 -75 8 -7 99 126 93 136 -3 5 -35 10 -70
10 l-63 0 18 -71z"/>
<path d="M1128 1531 c-87 -37 -161 -70 -164 -74 -9 -9 170 -7 211 2 21 4 41
23 73 69 24 35 43 65 41 67 -2 2 -75 -27 -161 -64z"/>
<path d="M592 1468 c-70 -96 -84 -119 -79 -124 3 -3 46 16 97 41 89 45 91 47
77 68 -8 12 -20 32 -28 45 -8 12 -17 22 -21 22 -4 0 -25 -24 -46 -52z"/>
<path d="M5151 1470 c28 -49 34 -52 85 -48 l39 3 -40 18 c-22 10 -49 26 -60
36 -41 37 -48 34 -24 -9z"/>
<path d="M900 1344 c0 -7 111 -154 116 -154 4 0 94 129 100 144 5 14 -8 16
-105 16 -61 0 -111 -3 -111 -6z"/>
<path d="M657 1273 c-65 -28 -103 -49 -95 -53 18 -10 315 -63 327 -58 12 4
-100 157 -114 157 -5 0 -59 -21 -118 -46z"/>
</g>
</svg>
